<svg width="41" height="41" viewBox="0 0 41 41" fill="none" xmlns="http://www.w3.org/2000/svg">
<g id="entypo-social:linkedin-with-circle">
<path id="Vector" d="M20.7508 1.2998C10.1468 1.2998 1.55078 9.89581 1.55078 20.4998C1.55078 31.1038 10.1468 39.6998 20.7508 39.6998C31.3548 39.6998 39.9508 31.1038 39.9508 20.4998C39.9508 9.89581 31.3548 1.2998 20.7508 1.2998ZM16.0508 28.4578H12.1628V15.9458H16.0508V28.4578ZM14.0828 14.4098C12.8548 14.4098 12.0608 13.5398 12.0608 12.4638C12.0608 11.3658 12.8788 10.5218 14.1328 10.5218C15.3868 10.5218 16.1548 11.3658 16.1788 12.4638C16.1788 13.5398 15.3868 14.4098 14.0828 14.4098ZM30.2508 28.4578H26.3628V21.5238C26.3628 19.9098 25.7988 18.8138 24.3928 18.8138C23.3188 18.8138 22.6808 19.5558 22.3988 20.2698C22.2948 20.5238 22.2688 20.8838 22.2688 21.2418V28.4558H18.3788V19.9358C18.3788 18.3738 18.3288 17.0678 18.2768 15.9438H21.6548L21.8328 17.6818H21.9108C22.4228 16.8658 23.6768 15.6618 25.7748 15.6618C28.3328 15.6618 30.2508 17.3758 30.2508 21.0598V28.4578Z" fill="#0B6532"/>
</g>
</svg>
