<svg width="13" height="15" viewBox="0 0 13 15" fill="none" xmlns="http://www.w3.org/2000/svg">
<g id="Group 1">
<path id="Vector" d="M10.5278 7.49978V3.83312C10.5278 2.48256 10.5278 1.38867 8.08333 1.38867H4.41667C1.97222 1.38867 1.97222 2.48256 1.97222 3.83312V7.49978M3.19444 7.49978C0.75 7.49978 0.75 8.59367 0.75 9.94423V10.5553C0.75 12.242 0.75 13.6109 3.80556 13.6109H8.69444C11.1389 13.6109 11.75 12.242 11.75 10.5553V9.94423C11.75 8.59367 11.75 7.49978 9.30556 7.49978C8.69444 7.49978 8.52333 7.62812 8.20556 7.86645L7.58222 8.52645C7.41085 8.70873 7.20397 8.854 6.97432 8.9533C6.74468 9.05259 6.49714 9.10382 6.24694 9.10382C5.99675 9.10382 5.74921 9.05259 5.51956 8.9533C5.28992 8.854 5.08304 8.70873 4.91167 8.52645L4.29444 7.86645C3.97667 7.62812 3.80556 7.49978 3.19444 7.49978Z" stroke="#0B6532" stroke-width="1.5" stroke-miterlimit="10" stroke-linecap="round" stroke-linejoin="round"/>
<path id="Vector_2" d="M5.36269 5.80697H7.39769M4.85547 3.97363H7.91102" stroke="#0B6532" stroke-width="1.5" stroke-linecap="round" stroke-linejoin="round"/>
</g>
</svg>
