<svg width="20" height="20" viewBox="0 0 20 20" fill="none" xmlns="http://www.w3.org/2000/svg">
<g id="Line Rounded/Mark">
<g id="Mark">
<path id="Vector" d="M16.8612 8.95606C16.8612 14.3349 11.352 17.6486 10.2071 18.2798C10.1437 18.3148 10.0724 18.3332 9.99998 18.3332C9.92755 18.3332 9.8563 18.3148 9.79287 18.2798C8.64712 17.6486 3.13965 14.3349 3.13965 8.95606C3.13965 4.66809 5.71243 1.6665 10.0004 1.6665C14.2884 1.6665 16.8612 4.66809 16.8612 8.95606Z" stroke="#4D775F" stroke-width="1.4" stroke-linecap="round" stroke-linejoin="round"/>
<path id="Vector_2" d="M6.57031 8.52706C6.57031 9.43685 6.93173 10.3094 7.57505 10.9527C8.21837 11.596 9.0909 11.9574 10.0007 11.9574C10.9105 11.9574 11.783 11.596 12.4263 10.9527C13.0697 10.3094 13.4311 9.43685 13.4311 8.52706C13.4311 7.61727 13.0697 6.74474 12.4263 6.10141C11.783 5.45809 10.9105 5.09668 10.0007 5.09668C9.0909 5.09668 8.21837 5.45809 7.57505 6.10141C6.93173 6.74474 6.57031 7.61727 6.57031 8.52706V8.52706Z" stroke="#4D775F" stroke-width="1.4" stroke-linecap="round" stroke-linejoin="round"/>
</g>
</g>
</svg>
