<svg width="20" height="20" viewBox="0 0 20 20" fill="none" xmlns="http://www.w3.org/2000/svg">
<g id="Line Rounded/Email">
<g id="Email">
<path id="Vector" d="M18.3337 5.94971V14.283C18.3337 14.8356 18.1142 15.3655 17.7235 15.7562C17.3328 16.1469 16.8029 16.3664 16.2503 16.3664H3.75033C3.19779 16.3664 2.66789 16.1469 2.27719 15.7562C1.88649 15.3655 1.66699 14.8356 1.66699 14.283V5.94971" stroke="#4D775F" stroke-width="1.4" stroke-linecap="round" stroke-linejoin="round"/>
<path id="Vector_2" d="M18.3337 5.94954C18.3337 5.39701 18.1142 4.86711 17.7235 4.47641C17.3328 4.0857 16.8029 3.86621 16.2503 3.86621H3.75033C3.19779 3.86621 2.66789 4.0857 2.27719 4.47641C1.88649 4.86711 1.66699 5.39701 1.66699 5.94954L8.89616 10.4634C9.22727 10.6704 9.60987 10.7801 10.0003 10.7801C10.3908 10.7801 10.7734 10.6704 11.1045 10.4634L18.3337 5.94954Z" stroke="#4D775F" stroke-width="1.4" stroke-linecap="round" stroke-linejoin="round"/>
</g>
</g>
</svg>
